<?xml version="1.0" encoding="UTF-8" standalone="no"?>
<!DOCTYPE svg PUBLIC "-//W3C//DTD SVG 1.1//EN" "http://www.w3.org/Graphics/SVG/1.1/DTD/svg11.dtd">
<!-- Created with Vectornator (http://vectornator.io/) -->
<svg height="100%" stroke-miterlimit="10" style="fill-rule:nonzero;clip-rule:evenodd;stroke-linecap:round;stroke-linejoin:round;" version="1.1" viewBox="0 0 949.817 495.843" width="100%" xml:space="preserve" xmlns="http://www.w3.org/2000/svg" xmlns:vectornator="http://vectornator.io" xmlns:xlink="http://www.w3.org/1999/xlink">
<defs>
<filter color-interpolation-filters="sRGB" filterUnits="userSpaceOnUse" height="148.994" id="Filter" width="139.921" x="500.398" y="136.69">
<feDropShadow dx="0.697528" dy="9.97564" flood-color="#ffe5e5" flood-opacity="1" in="SourceGraphic" result="Shadow" stdDeviation="5"/>
</filter>
<filter color-interpolation-filters="sRGB" filterUnits="userSpaceOnUse" height="53.1705" id="Filter_2" width="45.6039" x="466.754" y="202.412">
<feDropShadow dx="-3.67321e-05" dy="10" flood-color="#000000" flood-opacity="1" in="SourceGraphic" result="Shadow" stdDeviation="5"/>
</filter>
<filter color-interpolation-filters="sRGB" filterUnits="userSpaceOnUse" height="43.7517" id="Filter_3" width="40.694" x="371.794" y="183.482">
<feDropShadow dx="-3.53174e-05" dy="9.61488" flood-color="#000000" flood-opacity="1" in="SourceGraphic" result="Shadow" stdDeviation="4.80744"/>
</filter>
<filter color-interpolation-filters="sRGB" filterUnits="userSpaceOnUse" height="106.956" id="Filter_4" width="202.162" x="310.196" y="183.191">
<feDropShadow dx="-3.67321e-05" dy="10" flood-color="#ffe5e5" flood-opacity="1" in="SourceGraphic" result="Shadow" stdDeviation="5"/>
</filter>
<filter color-interpolation-filters="sRGB" filterUnits="userSpaceOnUse" height="43.6463" id="Filter_5" width="42.717" x="491.083" y="115.77">
<feDropShadow dx="-0.871521" dy="-9.96195" flood-color="#000000" flood-opacity="1" in="SourceGraphic" result="Shadow" stdDeviation="5"/>
</filter>
<filter color-interpolation-filters="sRGB" filterUnits="userSpaceOnUse" height="44.0161" id="Filter_6" width="39.7053" x="402.37" y="219.112">
<feDropShadow dx="-3.67321e-05" dy="10" flood-color="#000000" flood-opacity="1" in="SourceGraphic" result="Shadow" stdDeviation="5"/>
</filter>
<filter color-interpolation-filters="sRGB" filterUnits="userSpaceOnUse" height="44.4372" id="Filter_7" width="42.7027" x="371.558" y="220.098">
<feDropShadow dx="-3.67321e-05" dy="10" flood-color="#000000" flood-opacity="1" in="SourceGraphic" result="Shadow" stdDeviation="5"/>
</filter>
<filter color-interpolation-filters="sRGB" filterUnits="userSpaceOnUse" height="38.6315" id="Filter_8" width="44.3225" x="589.274" y="198.78">
<feDropShadow dx="-3.67321e-05" dy="10" flood-color="#000000" flood-opacity="1" in="SourceGraphic" result="Shadow" stdDeviation="5"/>
</filter>
<filter color-interpolation-filters="sRGB" filterUnits="userSpaceOnUse" height="44.0161" id="Filter_9" width="39.7053" x="471.234" y="251.475">
<feDropShadow dx="1.5309" dy="10.8929" flood-color="#ffe5e5" flood-opacity="1" in="SourceGraphic" result="Shadow" stdDeviation="5"/>
</filter>
<filter color-interpolation-filters="sRGB" filterUnits="userSpaceOnUse" height="44.0161" id="Filter_10" width="39.7053" x="552.104" y="189.203">
<feDropShadow dx="-3.67321e-05" dy="10" flood-color="#000000" flood-opacity="1" in="SourceGraphic" result="Shadow" stdDeviation="5"/>
</filter>
<filter color-interpolation-filters="sRGB" filterUnits="userSpaceOnUse" height="44.0161" id="Filter_11" width="39.7053" x="547.512" y="216.018">
<feDropShadow dx="-3.67321e-05" dy="10" flood-color="#000000" flood-opacity="1" in="SourceGraphic" result="Shadow" stdDeviation="5"/>
</filter>
<filter color-interpolation-filters="sRGB" filterUnits="userSpaceOnUse" height="44.0161" id="Filter_12" width="39.7053" x="569.239" y="211.44">
<feDropShadow dx="-3.67321e-05" dy="10" flood-color="#000000" flood-opacity="1" in="SourceGraphic" result="Shadow" stdDeviation="5"/>
</filter>
</defs>
<path d="M0 0L949.817 0L949.817 495.843L0 495.843L0 0Z" fill="#171819" fill-rule="nonzero" opacity="1" stroke="none"/>
<g id="Layer-1" vectornator:layerName="Layer 1">
<g filter="url(#Filter)" vectornator:layerName="Curve 1" vectornator:shadowAngle="-11.0654" vectornator:shadowColor="#ffe5e5" vectornator:shadowOffset="10" vectornator:shadowOpacity="1" vectornator:shadowRadius="10">
<path d="M514.344 141.25C514.434 148.169 514.046 155.088 513.781 162C513.272 175.311 512.925 188.662 513.75 201.969C514.309 210.984 515.382 220.061 517.812 228.781C519.624 235.281 522.255 241.67 526.469 247C528.955 250.144 531.93 252.903 535.125 255.312C538.007 257.486 541.067 259.485 544.594 260.406C547.825 261.25 551.239 261.428 554.562 261.344C558.728 261.238 562.871 260.703 566.969 259.969C575.48 258.444 583.822 255.935 591.844 252.719C599.211 249.765 606.416 246.172 612.812 241.438C619.601 236.412 627.097 228.745 625.938 219.531C625.767 218.18 625.438 216.86 624.938 215.594C623.803 212.724 621.972 210.285 619.969 207.969C620.145 207.667 618.789 206.521 616.938 205.438C615.086 204.354 613.427 203.73 613.25 204.031C614.579 205.558 615.771 207.155 616.625 209C617.164 210.163 617.569 211.397 617.812 212.656C619.541 221.608 612.453 229.308 605.938 234.344C599.33 239.451 591.757 243.277 584.031 246.375C574.837 250.062 565.166 252.851 555.344 254.219C550.564 254.884 545.655 255.25 540.844 254.688C539.14 254.488 536.822 254.192 535.312 253.312C535.269 253.287 535.23 253.276 535.188 253.25C535.099 253.183 535.04 253.105 534.969 253.031C534.486 252.531 534.024 252.014 533.594 251.469C532.379 249.928 531.336 248.257 530.406 246.531C526.959 240.131 525.057 232.929 523.781 225.812C520.678 208.502 520.995 190.664 521.594 173.156C521.888 164.541 522.457 155.904 522.344 147.281C522.615 146.921 521.053 145.291 518.844 143.625C516.635 141.959 514.615 140.89 514.344 141.25Z" fill="#f5f5f5" fill-opacity="0.983858" stroke="none"/>
</g>
<g filter="url(#Filter_2)" vectornator:layerName="Curve 11" vectornator:shadowAngle="1.5708" vectornator:shadowColor="#000000" vectornator:shadowOffset="10" vectornator:shadowOpacity="1" vectornator:shadowRadius="10">
<path d="M487.469 206.844C486.179 207.071 484.965 207.666 483.781 208.312C483.675 208.232 483.575 208.143 483.469 208.062C483.19 207.851 482.921 207.874 482.656 207.969C482.647 207.979 482.693 208.049 482.688 208.062C482.211 208.707 481.524 209.18 480.938 209.719C480.803 209.842 480.603 210.028 480.469 210.219C480.446 210.233 480.387 210.231 480.406 210.25C480.386 210.288 480.319 210.303 480.312 210.344C480.293 210.458 480.349 210.636 480.406 210.719C480.614 211.02 480.823 211.347 481.094 211.594C482.472 212.85 483.858 214.092 485.344 215.219C486.005 215.72 486.771 216.074 487.5 216.469C487.646 216.548 487.851 216.603 488.031 216.625C488.122 216.636 488.186 216.538 488.281 216.5C488.28 216.505 488.275 216.537 488.281 216.531C488.302 216.511 488.323 216.489 488.344 216.469C488.58 216.355 488.85 216.229 488.969 216.156C489.37 215.912 489.75 215.673 490.156 215.438C490.304 215.352 490.527 215.25 490.688 215.156C490.768 218.437 490.67 221.719 490.781 225C490.51 225.36 492.102 227.023 494.312 228.688C496.523 230.352 498.51 231.392 498.781 231.031C498.648 227.173 498.898 223.328 498.688 219.469C498.589 217.664 498.68 215.408 497.75 213.781C497.189 212.8 496.422 211.963 495.562 211.219C494.356 210.175 493.103 209.22 491.812 208.281C490.554 207.366 489.055 206.565 487.469 206.844ZM482.719 208.094C482.693 208.185 482.932 208.445 483.031 208.625C482.991 208.592 482.946 208.565 482.906 208.531C482.783 208.428 482.772 208.245 482.719 208.094Z" fill="#f5f5f5" fill-opacity="0.983858" stroke="none"/>
</g>
<g filter="url(#Filter_3)" vectornator:layerName="Curve 13" vectornator:shadowAngle="1.5708" vectornator:shadowColor="#000000" vectornator:shadowOffset="9.61488" vectornator:shadowOpacity="1" vectornator:shadowRadius="9.61488">
<path d="M391.781 187.781C391.095 189.717 390.306 191.618 389.125 193.312C387.946 195.004 386.429 196.382 384.875 197.719C384.603 198.06 386.091 199.673 388.188 201.344C390.284 203.015 392.196 204.092 392.469 203.75C394.041 202.4 395.557 201.021 396.75 199.312C397.946 197.599 398.741 195.677 399.438 193.719C399.705 193.373 398.214 191.766 396.094 190.125C393.974 188.484 392.049 187.436 391.781 187.781Z" fill="#f5f5f5" fill-opacity="0.983858" stroke="none"/>
</g>
<g filter="url(#Filter_4)" vectornator:layerName="Curve 10" vectornator:shadowAngle="1.5708" vectornator:shadowColor="#ffe5e5" vectornator:shadowOffset="10" vectornator:shadowOpacity="1" vectornator:shadowRadius="10">
<path d="M389.812 187.562C374.841 188.566 359.297 190.342 345.25 195.844C338.129 198.633 330.623 202.681 326.469 209.375C325.638 210.713 324.965 212.151 324.5 213.656C321.312 223.983 328.576 233.691 335.594 240.438C351.433 255.664 373.296 264.328 395.094 265.625C416.924 266.923 438.388 260.545 455.312 246.531C459.67 242.923 463.643 238.888 467.25 234.531C468.4 233.142 469.521 231.7 470.594 230.25C471.081 229.591 471.646 228.542 472.438 228.062C474.358 226.899 477.438 228.621 479.125 229.531C479.583 229.778 480.048 230.022 480.5 230.281C481.56 230.889 482.596 231.516 483.656 232.125C484.543 232.634 485.434 233.128 486.344 233.594C489.597 235.257 494.466 237.385 497.25 233.812C497.963 232.897 498.385 231.831 498.781 230.75C499.06 230.391 497.517 228.708 495.312 227C493.108 225.292 491.091 224.203 490.812 224.562C490.483 225.462 490.13 226.356 489.594 227.156C489.249 227.67 488.839 228.125 488.344 228.5C485.138 230.926 480.4 227.731 477.594 226.094C477.025 225.762 476.478 225.42 475.906 225.094C475.286 224.74 474.659 224.401 474.031 224.062C473.134 223.579 472.134 223.053 471.188 222.625C469.41 221.822 466.444 220.581 464.562 221.719C463.728 222.224 463.188 223.281 462.656 224C461.586 225.446 460.49 226.865 459.344 228.25C456.093 232.177 452.518 235.86 448.656 239.188C434.662 251.245 416.965 258.153 398.562 259.25C393.115 259.575 387.64 259.375 382.219 258.75C377.883 258.25 373.571 257.458 369.344 256.375C366.134 255.552 362.949 254.565 359.844 253.406C357.327 252.467 354.852 251.395 352.438 250.219C348.814 248.454 345.225 246.466 342.094 243.906C335.048 238.146 329.436 228.326 332.719 219.125C333.436 217.113 334.546 215.23 335.875 213.562C340.8 207.384 348.457 203.77 355.75 201.219C369.111 196.545 383.381 194.88 397.438 193.938C397.725 193.594 396.262 191.888 394.156 190.125C392.05 188.362 390.1 187.219 389.812 187.562Z" fill="#f5f5f5" fill-opacity="0.983858" stroke="none"/>
</g>
<g filter="url(#Filter_5)" vectornator:layerName="Curve 15" vectornator:shadowAngle="-14.2244" vectornator:shadowColor="#000000" vectornator:shadowOffset="10" vectornator:shadowOpacity="1" vectornator:shadowRadius="10">
<path d="M513.156 140.156C512.064 141.622 511.075 143.241 509.844 144.594C508.523 146.044 506.984 147.335 505.562 148.688C505.28 149.043 506.816 150.733 509 152.469C511.184 154.204 513.186 155.325 513.469 154.969C514.896 153.613 516.424 152.329 517.75 150.875C518.988 149.517 519.994 147.878 521.094 146.406C521.375 146.049 519.819 144.384 517.625 142.656C515.431 140.929 513.438 139.799 513.156 140.156Z" fill="#eae5ff" stroke="none"/>
</g>
<g filter="url(#Filter_6)" vectornator:layerName="Curve 16" vectornator:shadowAngle="1.5708" vectornator:shadowColor="#000000" vectornator:shadowOffset="10" vectornator:shadowOpacity="1" vectornator:shadowRadius="10">
<path d="M418.781 223.938C417.419 228.169 417.65 226.551 417.438 228.156C417.277 229.369 418.434 225.849 419.344 225.031C419.617 224.786 419.639 225.693 419.781 226.031C419.912 226.341 420.042 226.652 420.156 226.969C420.583 228.149 420.768 229.59 419.906 230.625C419.412 231.218 418.71 231.574 418 231.844C417.813 231.915 417.598 232.003 417.406 232.062C417.195 232.128 416.745 232.436 416.781 232.219C417.254 229.411 416.78 232.215 416.062 232.375C415.776 232.723 417.272 234.428 419.406 236.188C421.541 237.947 423.494 239.098 423.781 238.75C425.196 234.078 424.982 236.038 425.219 234.094C425.403 232.585 424.538 237.074 424.531 238.594C424.53 238.824 424.967 238.474 425.188 238.406C426.031 238.146 426.873 237.793 427.531 237.188C428.814 236.008 428.634 234.185 428.094 232.688C427.969 232.341 427.83 231.995 427.688 231.656C427.53 231.283 427.383 230.207 427.188 230.562C425.76 233.155 427.197 230.549 426.625 229.406C426.872 229.054 425.32 227.547 423.156 226.031C420.992 224.515 419.028 223.585 418.781 223.938Z" fill="#f5f5f5" fill-opacity="0.983858" stroke="none"/>
</g>
<g filter="url(#Filter_7)" vectornator:layerName="Curve 17" vectornator:shadowAngle="1.5708" vectornator:shadowColor="#000000" vectornator:shadowOffset="10" vectornator:shadowOpacity="1" vectornator:shadowRadius="10">
<path d="M392.5 224.688C393.111 228.196 391.811 232.072 388.219 233.375C387.279 233.716 386.334 233.805 385.344 233.781C385.056 234.12 386.513 235.799 388.594 237.562C390.675 239.326 392.588 240.495 392.875 240.156C393.952 240.181 395.009 240.088 396.031 239.719C399.814 238.351 401.138 234.314 400.5 230.625C400.767 230.265 399.208 228.637 397 227C394.792 225.363 392.767 224.328 392.5 224.688Z" fill="#f5f5f5" fill-opacity="0.983858" stroke="none"/>
</g>
<g filter="url(#Filter_8)" vectornator:layerName="Curve 14" vectornator:shadowAngle="1.5708" vectornator:shadowColor="#000000" vectornator:shadowOffset="10" vectornator:shadowOpacity="1" vectornator:shadowRadius="10">
<path d="M612.094 203.188C607.569 204.925 609.369 204.464 607.562 204.938C606.128 205.314 610.318 203.852 611.75 203.469C612.009 203.399 611.339 203.807 611.125 203.969C610.692 204.296 610.282 204.571 609.812 204.844C608.448 205.638 606.961 206.197 605.406 206.469C605.149 206.514 604.885 206.533 604.625 206.562C604.366 206.592 603.606 206.764 603.844 206.656C606.56 205.424 603.828 206.638 603.031 206.656C602.744 206.998 604.218 208.705 606.312 210.469C608.407 212.233 610.338 213.404 610.625 213.062C614.169 212.983 617.299 211.796 620 209.5C620.284 209.144 618.745 207.427 616.562 205.688C614.38 203.948 612.377 202.832 612.094 203.188Z" fill="#f5f5f5" fill-opacity="0.983858" stroke="none"/>
</g>
<g filter="url(#Filter_9)" vectornator:layerName="Curve 18" vectornator:shadowAngle="-17.4184" vectornator:shadowColor="#ffe5e5" vectornator:shadowOffset="11" vectornator:shadowOpacity="1" vectornator:shadowRadius="10">
<path d="M486.125 255.406C484.763 259.637 484.963 258.019 484.75 259.625C484.589 260.838 485.746 257.318 486.656 256.5C486.929 256.255 486.983 257.162 487.125 257.5C487.255 257.81 487.386 258.121 487.5 258.438C487.926 259.617 488.111 261.059 487.25 262.094C486.756 262.687 486.022 263.042 485.312 263.312C485.125 263.384 484.941 263.472 484.75 263.531C484.539 263.597 484.088 263.905 484.125 263.688C484.598 260.88 484.124 263.684 483.406 263.844C483.119 264.192 484.615 265.897 486.75 267.656C488.885 269.416 490.838 270.567 491.125 270.219C492.54 265.547 492.294 267.507 492.531 265.562C492.715 264.053 491.85 268.542 491.844 270.062C491.843 270.293 492.311 269.943 492.531 269.875C493.375 269.614 494.217 269.261 494.875 268.656C496.158 267.477 495.977 265.654 495.438 264.156C495.313 263.81 495.174 263.464 495.031 263.125C494.874 262.751 494.727 261.676 494.531 262.031C493.104 264.623 494.541 262.018 493.969 260.875C494.216 260.522 492.664 259.016 490.5 257.5C488.336 255.984 486.372 255.054 486.125 255.406Z" fill="#f5f5f5" fill-opacity="0.983858" stroke="none"/>
</g>
<g filter="url(#Filter_10)" vectornator:layerName="Curve 19" vectornator:shadowAngle="1.5708" vectornator:shadowColor="#000000" vectornator:shadowOffset="10" vectornator:shadowOpacity="1" vectornator:shadowRadius="10">
<path d="M568.531 194C567.169 198.231 567.369 196.645 567.156 198.25C566.996 199.463 568.153 195.943 569.062 195.125C569.336 194.88 569.389 195.787 569.531 196.125C569.662 196.435 569.761 196.746 569.875 197.062C570.301 198.242 570.487 199.684 569.625 200.719C569.131 201.312 568.428 201.667 567.719 201.938C567.531 202.009 567.348 202.066 567.156 202.125C566.945 202.19 566.463 202.53 566.5 202.312C566.973 199.505 566.499 202.309 565.781 202.469C565.494 202.817 567.022 204.522 569.156 206.281C571.291 208.041 573.245 209.192 573.531 208.844C574.946 204.172 574.7 206.132 574.938 204.188C575.122 202.678 574.256 207.167 574.25 208.688C574.249 208.918 574.717 208.568 574.938 208.5C575.781 208.239 576.623 207.886 577.281 207.281C578.564 206.102 578.352 204.279 577.812 202.781C577.688 202.435 577.58 202.089 577.438 201.75C577.28 201.376 577.133 200.301 576.938 200.656C575.51 203.248 576.916 200.643 576.344 199.5C576.591 199.147 575.039 197.641 572.875 196.125C570.711 194.609 568.778 193.647 568.531 194Z" fill="#f5f5f5" fill-opacity="0.983858" stroke="none"/>
</g>
<g filter="url(#Filter_11)" vectornator:layerName="Curve 20" vectornator:shadowAngle="1.5708" vectornator:shadowColor="#000000" vectornator:shadowOffset="10" vectornator:shadowOpacity="1" vectornator:shadowRadius="10">
<path d="M563.938 220.844C562.576 225.075 562.775 223.457 562.562 225.062C562.402 226.275 563.559 222.755 564.469 221.938C564.742 221.692 564.795 222.599 564.938 222.938C565.068 223.248 565.167 223.559 565.281 223.875C565.708 225.055 565.924 226.497 565.062 227.531C564.568 228.125 563.835 228.48 563.125 228.75C562.938 228.821 562.754 228.909 562.562 228.969C562.352 229.034 561.87 229.343 561.906 229.125C562.379 226.317 561.937 229.121 561.219 229.281C560.932 229.629 562.428 231.334 564.562 233.094C566.697 234.853 568.651 236.004 568.938 235.656C570.353 230.985 570.107 232.944 570.344 231C570.528 229.491 569.663 233.98 569.656 235.5C569.655 235.73 570.124 235.38 570.344 235.312C571.187 235.052 572.029 234.699 572.688 234.094C573.97 232.914 573.79 231.091 573.25 229.594C573.125 229.248 572.986 228.902 572.844 228.562C572.687 228.189 572.539 227.114 572.344 227.469C570.916 230.061 572.322 227.456 571.75 226.312C571.997 225.96 570.445 224.454 568.281 222.938C566.117 221.421 564.185 220.491 563.938 220.844Z" fill="#f5f5f5" fill-opacity="0.983858" stroke="none"/>
</g>
<g filter="url(#Filter_12)" vectornator:layerName="Curve 21" vectornator:shadowAngle="1.5708" vectornator:shadowColor="#000000" vectornator:shadowOffset="10" vectornator:shadowOpacity="1" vectornator:shadowRadius="10">
<path d="M585.656 216.25C584.294 220.481 584.494 218.863 584.281 220.469C584.121 221.682 585.309 218.162 586.219 217.344C586.492 217.098 586.514 218.005 586.656 218.344C586.787 218.654 586.917 218.965 587.031 219.281C587.458 220.461 587.643 221.903 586.781 222.938C586.287 223.531 585.553 223.917 584.844 224.188C584.656 224.259 584.473 224.316 584.281 224.375C584.07 224.44 583.62 224.78 583.656 224.562C584.129 221.755 583.655 224.559 582.938 224.719C582.651 225.067 584.147 226.772 586.281 228.531C588.416 230.291 590.37 231.442 590.656 231.094C592.071 226.422 591.825 228.35 592.062 226.406C592.247 224.897 591.413 229.417 591.406 230.938C591.405 231.168 591.842 230.818 592.062 230.75C592.906 230.489 593.748 230.105 594.406 229.5C595.689 228.321 595.509 226.529 594.969 225.031C594.844 224.685 594.705 224.339 594.562 224C594.405 223.626 594.258 222.52 594.062 222.875C592.635 225.467 594.072 222.893 593.5 221.75C593.747 221.397 592.195 219.86 590.031 218.344C587.867 216.828 585.903 215.897 585.656 216.25Z" fill="#f5f5f5" fill-opacity="0.983858" stroke="none"/>
</g>
</g>
</svg>
